<svg width="98" height="14" viewBox="0 0 98 14" fill="none" xmlns="http://www.w3.org/2000/svg">
<path d="M0.459517 7.28054V6.08736L7.53338 2.65696V4.2816L2.31321 6.66264L2.36115 6.56676V6.79581L2.31321 6.70526L7.53338 9.08097V10.7109L0.459517 7.28054ZM18.3985 1.09091H20.0392V8.82528C20.0392 9.52486 19.9007 10.1232 19.6237 10.6204C19.3502 11.1175 18.9649 11.4975 18.4678 11.7603C17.9706 12.0195 17.3882 12.1491 16.7206 12.1491C16.1063 12.1491 15.5541 12.0373 15.064 11.8136C14.5775 11.5898 14.1922 11.2649 13.9081 10.8388C13.6276 10.4091 13.4873 9.88707 13.4873 9.27273H15.1226C15.1226 9.57457 15.1919 9.83558 15.3303 10.0558C15.4724 10.2759 15.6659 10.4482 15.911 10.5724C16.1595 10.6932 16.4436 10.7536 16.7632 10.7536C17.1112 10.7536 17.406 10.6808 17.6475 10.5352C17.8925 10.386 18.0789 10.1676 18.2068 9.87997C18.3346 9.59233 18.3985 9.24077 18.3985 8.82528V1.09091ZM23.8997 7.14205V12H22.307V1.09091H23.8784V5.14986H23.9796C24.1713 4.70952 24.4643 4.35973 24.8585 4.1005C25.2527 3.84126 25.7676 3.71165 26.4032 3.71165C26.9643 3.71165 27.4544 3.82706 27.8734 4.05788C28.296 4.28871 28.6227 4.63317 28.8535 5.09126C29.0879 5.54581 29.2051 6.11399 29.2051 6.79581V12H27.6124V6.98757C27.6124 6.38743 27.4579 5.92223 27.149 5.59197C26.84 5.25817 26.4103 5.09126 25.8599 5.09126C25.4835 5.09126 25.1461 5.17116 24.8478 5.33097C24.5531 5.49077 24.3205 5.72514 24.15 6.03409C23.9831 6.33949 23.8997 6.70881 23.8997 7.14205ZM34.7768 12.1651C34.0098 12.1651 33.3404 11.9893 32.7686 11.6378C32.1969 11.2862 31.753 10.7944 31.437 10.1623C31.1209 9.53018 30.9629 8.79155 30.9629 7.94638C30.9629 7.09766 31.1209 6.35547 31.437 5.71982C31.753 5.08416 32.1969 4.59055 32.7686 4.23899C33.3404 3.88743 34.0098 3.71165 34.7768 3.71165C35.5439 3.71165 36.2132 3.88743 36.785 4.23899C37.3567 4.59055 37.8006 5.08416 38.1167 5.71982C38.4327 6.35547 38.5907 7.09766 38.5907 7.94638C38.5907 8.79155 38.4327 9.53018 38.1167 10.1623C37.8006 10.7944 37.3567 11.2862 36.785 11.6378C36.2132 11.9893 35.5439 12.1651 34.7768 12.1651ZM34.7821 10.8281C35.2793 10.8281 35.6912 10.6967 36.0179 10.4339C36.3446 10.1712 36.5861 9.82138 36.7424 9.38459C36.9022 8.9478 36.9821 8.46662 36.9821 7.94105C36.9821 7.41903 36.9022 6.93963 36.7424 6.50284C36.5861 6.0625 36.3446 5.70916 36.0179 5.44283C35.6912 5.17649 35.2793 5.04332 34.7821 5.04332C34.2814 5.04332 33.8659 5.17649 33.5357 5.44283C33.209 5.70916 32.9657 6.0625 32.8059 6.50284C32.6497 6.93963 32.5716 7.41903 32.5716 7.94105C32.5716 8.46662 32.6497 8.9478 32.8059 9.38459C32.9657 9.82138 33.209 10.1712 33.5357 10.4339C33.8659 10.6967 34.2814 10.8281 34.7821 10.8281ZM41.9612 7.14205V12H40.3685V3.81818H41.8973V5.14986H41.9985C42.1867 4.71662 42.4814 4.36861 42.8827 4.10582C43.2876 3.84304 43.7971 3.71165 44.4115 3.71165C44.969 3.71165 45.4573 3.82884 45.8763 4.06321C46.2954 4.29403 46.6203 4.63849 46.8511 5.09659C47.0819 5.55469 47.1974 6.12109 47.1974 6.79581V12H45.6047V6.98757C45.6047 6.39453 45.4502 5.93111 45.1412 5.5973C44.8323 5.25994 44.4079 5.09126 43.8682 5.09126C43.4988 5.09126 43.1704 5.17116 42.8827 5.33097C42.5986 5.49077 42.3731 5.72514 42.2062 6.03409C42.0429 6.33949 41.9612 6.70881 41.9612 7.14205ZM51.7144 12.1811C51.1959 12.1811 50.7272 12.0852 50.3081 11.8935C49.8891 11.6982 49.5571 11.4158 49.3121 11.0465C49.0706 10.6772 48.9498 10.2244 48.9498 9.68821C48.9498 9.22656 49.0386 8.84659 49.2162 8.5483C49.3937 8.25 49.6334 8.01385 49.9353 7.83984C50.2371 7.66584 50.5745 7.53445 50.9474 7.44567C51.3202 7.35689 51.7002 7.28942 52.0873 7.24325C52.5773 7.18643 52.9751 7.14027 53.2805 7.10476C53.5858 7.0657 53.8078 7.00355 53.9463 6.91832C54.0848 6.8331 54.154 6.6946 54.154 6.50284V6.46555C54.154 6.00035 54.0226 5.63991 53.7599 5.38423C53.5006 5.12855 53.1135 5.00071 52.5986 5.00071C52.0624 5.00071 51.6398 5.11967 51.3309 5.3576C51.0255 5.59197 50.8142 5.85298 50.697 6.14062L49.2002 5.79972C49.3778 5.30256 49.637 4.90128 49.9779 4.59588C50.3224 4.28693 50.7183 4.06321 51.1657 3.92472C51.6132 3.78267 52.0837 3.71165 52.5773 3.71165C52.904 3.71165 53.2503 3.75071 53.616 3.82884C53.9854 3.90341 54.3298 4.0419 54.6494 4.24432C54.9726 4.44673 55.2371 4.73615 55.4431 5.11257C55.6491 5.48544 55.752 5.97017 55.752 6.56676V12H54.1966V10.8814H54.1327C54.0297 11.0874 53.8753 11.2898 53.6693 11.4886C53.4633 11.6875 53.1988 11.8526 52.8756 11.984C52.5525 12.1154 52.1654 12.1811 51.7144 12.1811ZM52.0606 10.9027C52.501 10.9027 52.8774 10.8157 53.1899 10.6417C53.5059 10.4677 53.7457 10.2404 53.909 9.95987C54.0759 9.67578 54.1594 9.37216 54.1594 9.04901V7.99432C54.1025 8.05114 53.9925 8.1044 53.8291 8.15412C53.6693 8.20028 53.4864 8.24112 53.2805 8.27663C53.0745 8.30859 52.8738 8.33878 52.6785 8.36719C52.4832 8.39205 52.3199 8.41335 52.1885 8.43111C51.8795 8.47017 51.5972 8.53587 51.3415 8.6282C51.0894 8.72053 50.887 8.85369 50.7343 9.0277C50.5851 9.19815 50.5106 9.42543 50.5106 9.70952C50.5106 10.1037 50.6562 10.402 50.9474 10.6044C51.2385 10.8033 51.6096 10.9027 52.0606 10.9027ZM61.6926 3.81818V5.09659H57.2235V3.81818H61.6926ZM58.4221 1.85795H60.0147V9.59766C60.0147 9.90661 60.0609 10.1392 60.1532 10.2955C60.2456 10.4482 60.3645 10.5529 60.5101 10.6097C60.6593 10.663 60.8208 10.6896 60.9949 10.6896C61.1227 10.6896 61.2346 10.6808 61.3304 10.663C61.4263 10.6452 61.5009 10.631 61.5542 10.6204L61.8418 11.9361C61.7495 11.9716 61.6181 12.0071 61.4476 12.0426C61.2772 12.0817 61.0641 12.103 60.8084 12.1065C60.3894 12.1136 59.9988 12.0391 59.6365 11.8828C59.2743 11.7266 58.9814 11.4851 58.7576 11.1584C58.5339 10.8317 58.4221 10.4215 58.4221 9.92791V1.85795ZM65.8355 12.1811C65.317 12.1811 64.8483 12.0852 64.4292 11.8935C64.0102 11.6982 63.6782 11.4158 63.4331 11.0465C63.1917 10.6772 63.0709 10.2244 63.0709 9.68821C63.0709 9.22656 63.1597 8.84659 63.3373 8.5483C63.5148 8.25 63.7545 8.01385 64.0564 7.83984C64.3582 7.66584 64.6956 7.53445 65.0684 7.44567C65.4413 7.35689 65.8213 7.28942 66.2084 7.24325C66.6984 7.18643 67.0961 7.14027 67.4015 7.10476C67.7069 7.0657 67.9289 7.00355 68.0674 6.91832C68.2059 6.8331 68.2751 6.6946 68.2751 6.50284V6.46555C68.2751 6.00035 68.1437 5.63991 67.8809 5.38423C67.6217 5.12855 67.2346 5.00071 66.7197 5.00071C66.1835 5.00071 65.7609 5.11967 65.452 5.3576C65.1466 5.59197 64.9353 5.85298 64.8181 6.14062L63.3213 5.79972C63.4988 5.30256 63.7581 4.90128 64.099 4.59588C64.4434 4.28693 64.8394 4.06321 65.2868 3.92472C65.7343 3.78267 66.2048 3.71165 66.6984 3.71165C67.0251 3.71165 67.3714 3.75071 67.7371 3.82884C68.1064 3.90341 68.4509 4.0419 68.7705 4.24432C69.0937 4.44673 69.3582 4.73615 69.5642 5.11257C69.7702 5.48544 69.8731 5.97017 69.8731 6.56676V12H68.3177V10.8814H68.2538C68.1508 11.0874 67.9964 11.2898 67.7904 11.4886C67.5844 11.6875 67.3199 11.8526 66.9967 11.984C66.6736 12.1154 66.2865 12.1811 65.8355 12.1811ZM66.1817 10.9027C66.6221 10.9027 66.9985 10.8157 67.311 10.6417C67.627 10.4677 67.8667 10.2404 68.0301 9.95987C68.197 9.67578 68.2805 9.37216 68.2805 9.04901V7.99432C68.2236 8.05114 68.1135 8.1044 67.9502 8.15412C67.7904 8.20028 67.6075 8.24112 67.4015 8.27663C67.1956 8.30859 66.9949 8.33878 66.7996 8.36719C66.6043 8.39205 66.441 8.41335 66.3096 8.43111C66.0006 8.47017 65.7183 8.53587 65.4626 8.6282C65.2105 8.72053 65.0081 8.85369 64.8554 9.0277C64.7062 9.19815 64.6317 9.42543 64.6317 9.70952C64.6317 10.1037 64.7773 10.402 65.0684 10.6044C65.3596 10.8033 65.7307 10.9027 66.1817 10.9027ZM73.5872 7.14205V12H71.9945V3.81818H73.5233V5.14986H73.6245C73.8127 4.71662 74.1074 4.36861 74.5087 4.10582C74.9135 3.84304 75.4231 3.71165 76.0375 3.71165C76.595 3.71165 77.0833 3.82884 77.5023 4.06321C77.9213 4.29403 78.2463 4.63849 78.4771 5.09659C78.7079 5.55469 78.8233 6.12109 78.8233 6.79581V12H77.2306V6.98757C77.2306 6.39453 77.0762 5.93111 76.7672 5.5973C76.4583 5.25994 76.0339 5.09126 75.4941 5.09126C75.1248 5.09126 74.7963 5.17116 74.5087 5.33097C74.2246 5.49077 73.9991 5.72514 73.8322 6.03409C73.6689 6.33949 73.5872 6.70881 73.5872 7.14205ZM89.0839 0.579545L85.5683 13.6406H84.146L87.6617 0.579545H89.0839ZM97.8996 8.30327L90.8257 11.7337V10.1037L96.0459 7.72798L95.9926 7.81854V7.58949L96.0459 7.68537L90.8257 5.30433V3.67969L97.8996 7.11008V8.30327Z" fill="#00D2DF"/>
</svg>
